<svg width="659" height="143" viewBox="0 0 659 143" fill="none" xmlns="http://www.w3.org/2000/svg">
<path d="M0 142.194V71.0972V0H32.1084V8.88715L10.8939 8.60046V133.594H32.1084V142.194H0Z" fill="#EC4899"/>
<path d="M658.891 0V71.0972V142.194H626.783V133.307L647.997 133.594V8.60046H626.783V0H658.891Z" fill="#EC4899"/>
<path d="M524.217 101.136C524.645 100.195 526.1 98.8256 527.469 98.141C528.924 97.2851 531.064 96.9428 533.203 97.1995C535.485 97.4848 537.283 98.3407 538.595 99.7671C539.793 101.222 540.478 103.105 540.478 105.244C540.478 107.555 539.793 109.096 538.081 110.807C536.284 112.605 535 113.118 532.176 113.118C529.523 113.118 527.726 112.519 525.928 110.979C523.96 109.352 523.361 108.154 523.361 105.844C523.361 104.217 523.789 102.078 524.217 101.136Z" fill="#C2FF29"/>
<path d="M551.604 112.262V82.3079V52.3534H564.441V112.262H551.604Z" fill="#C2FF29"/>
<path d="M198.398 68.6144C193.263 61.0831 188.556 54.1507 187.871 53.2093C186.673 51.4976 186.844 51.4976 204.132 51.4976L207.727 57.2318C209.695 60.4839 212.605 65.1053 216.97 72.0373L216.97 72.0378L220.308 66.7316C222.067 63.7996 224.892 59.3097 229.505 51.9776L229.807 51.4976H246.924L244.1 55.6057C242.474 57.8309 237.852 64.6776 226.213 81.88L228.695 85.3033C230.15 87.1862 234.771 93.8617 239.051 100.109C243.415 106.271 246.924 111.578 246.924 111.834C246.924 112.091 242.987 112.177 229.551 111.834L223.645 102.42C220.393 97.2851 217.483 92.9203 217.141 92.8347C216.799 92.6636 213.889 97.0284 204.56 112.262H195.574C188.299 112.348 186.759 112.091 187.529 111.235C188.042 110.636 192.75 103.875 207.556 82.3079L198.398 68.6144Z" fill="#EEEEEE"/>
<path d="M124.796 101.564C122.913 97.4563 122.828 96.5149 122.828 74.4342V51.4976H138.233V71.182C138.233 85.4745 138.575 91.6366 139.345 93.605C139.944 95.1455 141.399 97.1139 142.597 97.9698C143.967 98.9112 146.192 99.4247 149.102 99.4247C151.841 99.4247 154.665 98.8256 156.205 97.8842C157.575 97.1139 159.543 95.0599 160.399 93.4338C162.025 90.6951 162.111 88.8123 162.196 51.4976H177.601V112.262H163.052L162.111 102.42L160.399 105.159C159.543 106.699 157.489 108.925 156.034 110.123C154.494 111.235 151.07 112.605 148.503 113.204C145.079 113.888 142.512 113.888 139.088 113.204C135.751 112.519 133.269 111.321 130.616 109.096C128.476 107.213 125.909 103.961 124.796 101.564Z" fill="#EEEEEE"/>
<path d="M590.545 52.7815C595.081 50.8132 596.622 50.6419 603.81 50.8987C610.571 51.1554 612.711 51.5833 616.476 53.4661C618.873 54.7498 622.381 57.2319 624.179 58.9436C625.976 60.7409 628.287 63.9075 629.314 66.0471C630.341 68.1867 631.624 72.5513 632.224 75.8889C632.994 80.5105 632.994 83.3352 632.139 88.2991C631.539 91.9792 630.17 96.5151 628.801 98.9114C627.517 101.222 624.778 104.56 622.639 106.443C620.499 108.24 616.647 110.636 614.08 111.577C610.742 112.861 607.404 113.375 602.526 113.46C596.792 113.46 594.824 113.032 590.202 110.893C586.779 109.352 583.356 106.956 581.045 104.303C578.991 102.078 576.423 98.4832 575.396 96.2581C573.685 92.6635 573.428 90.7808 573.428 81.8801C573.428 72.4659 573.599 71.1818 575.738 66.9026C577.022 64.3351 579.675 60.5692 581.729 58.6008C583.783 56.5469 587.721 53.9796 590.545 52.7815ZM602.355 62.7092C600.558 62.7092 598.162 63.1368 596.964 63.5647C595.766 64.0782 593.711 65.448 592.428 66.7317C591.144 68.0155 589.432 70.9252 588.747 73.3215C588.062 75.6323 587.549 79.4838 587.549 81.8801C587.549 84.1909 588.062 88.0424 588.747 90.4387C589.517 92.835 591.144 95.7445 592.428 96.9426C593.711 98.2264 595.68 99.6811 596.707 100.195C597.82 100.708 600.729 101.136 603.125 101.136C606.463 101.136 608.432 100.623 610.571 99.2532C612.197 98.1405 614.337 95.7444 615.278 93.8616C616.476 91.5509 617.161 88.3844 617.332 84.0198C617.503 80.5108 617.247 75.9742 616.733 73.9202C616.22 71.9518 614.765 69.1276 613.481 67.5872C612.112 66.1322 609.801 64.4213 608.346 63.7366C606.805 63.1375 604.067 62.6237 602.355 62.7092Z" fill="#C2FF29"/>
<path d="M416.809 52.6103C418.178 51.84 420.917 51.0698 422.8 50.7274C424.683 50.3851 427.935 50.2995 430.074 50.4707C432.214 50.6419 435.124 51.3265 436.493 51.9256C437.862 52.4391 440.344 54.0652 441.971 55.4346C443.597 56.8039 445.651 59.6282 446.592 61.7678C448.047 65.2767 448.218 67.6731 448.133 111.834L432.642 112.262V92.1501C432.642 76.3171 432.385 71.4388 431.358 69.2136C430.673 67.7587 429.133 65.9614 427.935 65.3623C426.737 64.8488 423.998 64.3353 421.773 64.3353C418.863 64.3353 416.723 64.8488 414.669 66.2182C413.043 67.3307 410.989 69.5559 410.219 71.182C408.849 73.7496 408.678 76.8306 408.678 112.262H393.273V51.4977H406.539L407.223 54.2364C407.566 55.7769 407.822 57.9165 407.822 58.9435C407.822 60.6552 408.165 60.484 410.989 57.403C412.786 55.4346 415.439 53.295 416.809 52.6103Z" fill="#EEEEEE"/>
<path d="M353.905 49.8716C354.59 49.7861 357.585 50.2142 360.581 50.6421C363.49 51.1556 367.855 52.4391 370.166 53.6372C372.819 54.9209 375.472 57.1464 377.012 59.3716C378.467 61.4255 380.008 64.8485 380.436 67.0737C380.95 69.3845 381.292 80.4251 381.292 112.262H367.598L366.486 104.988L363.833 107.812C362.378 109.352 359.467 111.321 357.328 112.091C355.102 112.947 351.166 113.546 347.914 113.46C344.234 113.46 340.981 112.862 338.5 111.664C336.36 110.722 333.536 108.839 332.167 107.469C330.797 106.1 329.171 103.704 328.572 102.164C327.887 100.709 327.374 97.2848 327.374 94.7173C327.374 91.8075 327.973 88.8122 329 86.7583C329.855 85.0466 331.311 82.9075 332.167 82.1372C333.108 81.3669 335.504 79.9116 337.644 78.9702C340.04 77.8577 345.089 76.8304 350.909 76.3169C356.044 75.8034 361.436 74.8626 362.72 74.3491C364.774 73.4933 365.116 72.8081 365.031 70.0698C365.031 67.7591 364.432 66.3036 362.72 64.7632C361.351 63.565 358.954 62.3672 357.328 62.0249C355.701 61.7682 352.877 62.0241 351.166 62.5376C348.855 63.2222 347.4 64.4211 344.491 69.4702H330.369L331.053 66.3042C331.396 64.5069 332.594 61.5966 333.792 59.7993C334.991 58.0876 337.558 55.6061 339.527 54.2368C341.495 52.953 345.261 51.498 347.829 50.8989C350.482 50.3854 353.22 49.8716 353.905 49.8716ZM365.202 84.02C364.774 84.0201 364.26 84.191 364.089 84.4477C363.917 84.619 360.494 85.2179 356.472 85.8169C352.45 86.3304 348.171 87.2719 346.887 87.9565C345.518 88.6412 344.063 89.9252 343.635 90.8667C343.207 91.808 342.779 93.5191 342.779 94.7173C342.779 95.9153 343.891 97.9694 345.346 99.4243C347.486 101.564 348.599 101.993 352.022 101.993C354.247 101.993 357.328 101.307 358.955 100.452C360.581 99.6813 362.72 97.8838 363.662 96.6001C364.86 94.8884 365.544 92.5775 365.715 89.0688C365.886 86.3302 365.63 84.02 365.202 84.02Z" fill="#EEEEEE"/>
<path d="M551.005 34.2953C551.604 33.6106 552.802 32.498 553.743 31.9845C554.685 31.471 556.739 30.9575 558.194 30.9575C560.076 30.9575 561.731 31.6707 563.157 33.0971C564.698 34.6376 565.297 36.1781 565.297 38.4889C565.297 40.7996 564.784 42.2546 563.072 43.7951C561.531 45.3356 559.905 45.9347 557.423 45.9347C554.77 45.9347 553.572 45.4212 551.946 43.6239C550.662 42.0834 549.892 40.2006 549.892 38.4889C549.892 36.9484 550.405 35.0655 551.005 34.2953Z" fill="#C2FF29"/>
<path d="M460.885 112.262V71.182V30.1017H476.29L476.718 75.4612L498.114 51.5833L515.658 51.4977L508.64 59.8849C504.789 64.4209 499.654 70.4973 492.722 78.4567L505.131 94.7176C511.893 103.704 517.627 111.235 517.884 111.663C518.055 112.006 514.118 112.262 499.825 112.262L491.267 100.537C486.56 94.1185 482.366 88.47 482.024 87.9565C481.596 87.3574 480.483 88.1277 478.857 90.0105C476.29 92.9204 476.29 93.1771 476.29 112.262H460.885Z" fill="#EEEEEE"/>
<path d="M277.478 30.1017C291 30.1017 296.392 30.4438 299.987 31.4708C302.554 32.1555 306.491 34.124 308.716 35.7501C311.027 37.3762 314.023 40.4575 315.392 42.6827C316.847 44.9935 318.387 48.9307 318.901 51.4981C319.414 54.0657 319.585 58.3448 319.328 60.9122C318.986 63.4795 318.045 67.1592 317.104 69.0421C316.248 70.9249 314.022 73.8349 312.225 75.461C310.428 77.0871 308.117 79.0561 305.121 81.0245L312.91 95.5733C317.274 103.617 320.868 110.634 321.04 111.15C321.297 112.005 319.243 112.263 304.266 112.263L289.716 84.0196H275.167V112.263H259.762V30.1017H277.478ZM274.311 43.795V69.4698C291.427 69.4698 294.252 69.1279 296.563 67.9298C298.274 67.074 300.157 65.1912 301.013 63.4796C301.869 61.8535 302.554 58.9435 302.554 57.0606C302.554 55.1778 301.869 52.2678 301.013 50.6417C300.072 48.6734 298.189 46.9615 295.707 45.6778C292.455 44.0517 290.486 43.795 283.04 43.795H274.311Z" fill="#C2FF29"/>
<path d="M95.4406 112.262V71.182V30.1017H111.274V70.0694C111.188 92.1501 111.102 110.636 111.017 111.15C110.931 111.92 108.62 112.262 95.4406 112.262Z" fill="#EEEEEE"/>
<path d="M32.1084 112.262V71.182V30.1017H84.3147V44.651H48.3694V64.3353H80.8913V78.8846H47.5135L48.7973 112.262H32.1084Z" fill="#C2FF29"/>
</svg>
